<svg xmlns="http://www.w3.org/2000/svg" viewBox="0 0 64 64" role="img" aria-label="Igor Szuniewicz monogram">
  <defs>
    <linearGradient id="bg" x1="0" y1="0" x2="1" y2="1">
      <stop offset="0%" stop-color="#102438"/>
      <stop offset="100%" stop-color="#060b12"/>
    </linearGradient>
    <linearGradient id="accent" x1="0" y1="0" x2="1" y2="1">
      <stop offset="0%" stop-color="#63d1ff"/>
      <stop offset="100%" stop-color="#ab7bff"/>
    </linearGradient>
    <linearGradient id="accentSecondary" x1="0" y1="0" x2="1" y2="0">
      <stop offset="0%" stop-color="#ff6188"/>
      <stop offset="100%" stop-color="#ffde6e"/>
    </linearGradient>
    <filter id="shadow" x="-30%" y="-30%" width="160%" height="160%">
      <feDropShadow dx="0" dy="4" stdDeviation="4" flood-color="rgba(10,15,25,0.55)"/>
    </filter>
  </defs>

  <rect x="2" y="2" width="60" height="60" rx="14" ry="14" fill="url(#bg)" stroke="rgba(255,255,255,0.08)"/>

  <!-- Stylised waveform / spark element -->
  <path d="M14 44 C18 30 24 30 28 44 S38 58 42 44 S48 30 52 34" fill="none" stroke="url(#accentSecondary)" stroke-linecap="round" stroke-width="5" opacity="0.65"/>

  <!-- Monogram -->
  <g filter="url(#shadow)">
    <path d="M20 18 h7 v28 h-7 Z" fill="url(#accent)"/>
    <path d="M38 18 c-6 0 -12 3.5 -12 8.5 0 6.2 6.6 7.8 11.1 8.8 4 0.9 6.9 1.6 6.9 3.8 0 2.2 -2.4 3.9 -5.9 3.9 -3.5 0 -6.9 -1.5 -9.7 -4.3l-4.3 4.6c3.9 4 9.3 6.4 15.1 6.4 7.6 0 13.6 -4.1 13.6 -10 0 -6.3 -5.9 -8.2 -10.7 -9.4 -3.9 -1 -7.3 -1.8 -7.3 -4.2 0 -1.9 2.1 -3.4 5.3 -3.4 3 0 6.2 1.2 9 3.4l4.1 -4.8c-3.7 -3.3 -8.6 -5.3 -13.2 -5.3z" fill="url(#accent)"/>
  </g>
</svg>
